<svg id="Layer_1" data-name="Layer 1" xmlns="http://www.w3.org/2000/svg" viewBox="0 0 1080 1080"><path d="M736.68,814.69H356.29c-.76-7.72-1.63-15.35-2.25-23a406,406,0,0,1,.61-72.63c5.88-59.25,22.15-115.06,55.68-165,17.62-26.24,39.2-48.61,67-64.15,9.93-5.55,20.62-9.73,30.65-14.39-25.48-10.93-45.2-29.22-57.16-55.31s-13.38-53-4.38-80.26c15.34-46.47,60.08-76.93,109.16-74.55,48.63,2.36,90,37.19,101,84.95,12.15,52.54-17.31,108.83-68.57,127,1.89.69,3.48,1.25,5.06,1.84,27.65,10.29,50.43,27.54,69.9,49.37,27.7,31.05,46.08,67.3,58.64,106.66,14.8,46.37,20.59,93.95,18.29,142.51-.53,11.21-1.75,22.39-2.69,33.58C737.18,812.42,736.89,813.51,736.68,814.69Z"/><path d="M980,783.45c-.44,9.47-1.48,18.93-2.26,28.38a28.67,28.67,0,0,1-.5,2.86H767.31c.2-1.17.49-2.26.6-3.38.91-11.2,2.16-22.37,2.68-33.59,2.29-48.56-3.49-96.15-18.31-142.5-7.55-23.67-17.21-46.21-29.73-67.17a150.29,150.29,0,0,1,35.54-27.73c8.41-4.69,17.44-8.23,25.91-12.16-21.54-9.24-38.2-24.71-48.3-46.74s-11.3-44.78-3.7-67.82a92.31,92.31,0,0,1,92.22-63c41.11,2,76,31.42,85.35,71.78,10.28,44.39-14.63,91.93-57.93,107.27,1.61.57,2.94,1,4.27,1.54,23.38,8.69,42.62,23.27,59.08,41.71,23.4,26.24,38.92,56.86,49.54,90.13A339.56,339.56,0,0,1,980,783.45Z"/><path d="M323.43,791.7c.6,7.63,1.48,15.26,2.24,23h-223c-.65-6.53-1.38-13-1.9-19.42a342.76,342.76,0,0,1,.52-61.37c4.95-50.07,18.72-97.22,47-139.37,14.92-22.19,33.15-41.09,56.66-54.21,8.38-4.69,17.42-8.23,25.88-12.16-21.51-9.24-38.17-24.71-48.27-46.74s-11.33-44.78-3.73-67.82a92.32,92.32,0,0,1,92.25-63c41.09,2,76,31.42,85.35,71.78,10.26,44.39-14.63,91.93-58,107.27,1.61.57,2.94,1,4.3,1.54,23.35,8.69,42.59,23.27,59.05,41.71,1.27,1.43,2.52,2.89,3.77,4.34C341.47,621.06,329,668.81,324,719.06A405.15,405.15,0,0,0,323.43,791.7Z"/><path d="M623.79,733.9a344.62,344.62,0,0,0-.49,61.37c.52,6.46,1.25,12.89,1.9,19.42H454.66c.18-1,.41-1.93.49-2.86.81-9.45,1.82-18.91,2.29-28.38A340.49,340.49,0,0,0,442,663.05c-10.05-31.45-24.45-60.53-45.78-85.79,4.33-7.86,9-15.57,14.12-23.17,17.62-26.22,39.21-48.61,67-64.15,9.92-5.55,20.62-9.71,30.65-14.37-25.47-10.94-45.2-29.24-57.15-55.31s-13.39-53-4.41-80.27a109.26,109.26,0,0,1,109.18-74.54c48.63,2.34,90,37.18,101,84.93,12.13,52.54-17.32,108.83-68.58,127,1.9.7,3.49,1.25,5,1.84,27.68,10.29,50.43,27.55,69.91,49.37a257.11,257.11,0,0,1,28.9,39.5,196.41,196.41,0,0,0-21.09,26.48C642.51,636.68,628.76,683.83,623.79,733.9Z"/></svg>